<?xml version="1.0" encoding="utf-8"?>
<!-- Generator: Adobe Illustrator 27.8.0, SVG Export Plug-In . SVG Version: 6.00 Build 0)  -->
<svg version="1.1" id="Ebene_1" xmlns="http://www.w3.org/2000/svg" xmlns:xlink="http://www.w3.org/1999/xlink" x="0px" y="0px"
	 viewBox="0 0 505.11 176.89" style="enable-background:new 0 0 505.11 176.89;" xml:space="preserve">
<style type="text/css">
	.st0{clip-path:url(#SVGID_00000108276084241149428320000007366374354605206443_);}
</style>
<g>
	<defs>
		<rect id="SVGID_1_" x="21.82" y="18.56" width="460.82" height="141.72"/>
	</defs>
	<clipPath id="SVGID_00000011023744848459661210000016312941281344968604_">
		<use xlink:href="#SVGID_1_"  style="overflow:visible;"/>
	</clipPath>
	<path style="clip-path:url(#SVGID_00000011023744848459661210000016312941281344968604_);" d="M432.69,111.56h-3.89v20.24h4.32
		v-10.87c0-2.02,0.35-3.53,1.05-4.5c0.7-0.98,1.79-1.47,3.26-1.47h2.29v-3.69c-0.56-0.08-1.21-0.12-1.93-0.12
		c-1.97,0-3.52,0.86-4.67,2.57L432.69,111.56z M325.09,103.62h-4.32v28.17h4.32v-11.01c0-3.96,1.5-5.95,4.51-5.95
		c1.6,0.03,2.77,0.5,3.49,1.43c0.72,0.93,1.09,2.43,1.09,4.51v11.01h4.32v-11.04c0-3.27-0.64-5.69-1.91-7.25
		c-1.27-1.56-3.31-2.35-6.12-2.36c-1.2,0-2.27,0.26-3.2,0.77c-0.94,0.51-1.66,1.12-2.17,1.82V103.62z M324.83,72.38h-4.32v20.24
		h4.32V72.38z M325.11,64.45h-4.87v4.85h4.87V64.45z M301.04,114.05c-1.74,1.94-2.61,4.47-2.61,7.6c0,3.17,0.87,5.72,2.61,7.65
		c1.74,1.93,4.06,2.89,6.97,2.89c1.28,0,2.44-0.19,3.51-0.58c1.06-0.39,1.95-0.91,2.66-1.56c0.71-0.65,1.29-1.37,1.73-2.15
		c0.44-0.78,0.76-1.6,0.94-2.47c-2.21-0.43-3.64-0.7-4.28-0.8c-0.32,1.25-0.88,2.2-1.65,2.87c-0.78,0.67-1.73,1-2.86,1
		c-1.67,0-2.96-0.62-3.86-1.86c-0.91-1.24-1.36-2.9-1.36-4.99c0-2.08,0.45-3.73,1.36-4.96c0.91-1.23,2.19-1.85,3.86-1.85
		c1.07,0,1.99,0.33,2.76,0.98c0.78,0.66,1.33,1.61,1.67,2.87c0.25-0.04,1.67-0.31,4.28-0.8c-0.17-0.71-0.4-1.39-0.7-2.03
		c-0.3-0.64-0.7-1.25-1.19-1.83c-0.5-0.58-1.06-1.09-1.7-1.5c-0.64-0.42-1.4-0.75-2.29-1c-0.89-0.25-1.84-0.38-2.87-0.38
		C305.1,111.15,302.78,112.11,301.04,114.05 M282.4,125c-0.02,0-1.44,0.26-4.24,0.8c0.3,1.92,1.2,3.46,2.71,4.64
		c1.5,1.17,3.51,1.76,6.03,1.76c2.51,0,4.58-0.57,6.18-1.7c1.61-1.13,2.42-2.74,2.42-4.81c0-0.9-0.16-1.7-0.46-2.39
		c-0.31-0.69-0.71-1.25-1.19-1.67c-0.49-0.42-1.12-0.78-1.9-1.07c-0.78-0.3-1.54-0.51-2.29-0.62c-0.74-0.12-1.62-0.25-2.63-0.41
		c-1.33-0.13-2.32-0.36-2.96-0.68c-0.65-0.32-0.97-0.87-0.97-1.64c0-0.64,0.33-1.19,1.01-1.65c0.67-0.46,1.52-0.69,2.55-0.69
		c2.58,0,3.99,1.14,4.24,3.42c2.36-0.45,3.79-0.72,4.28-0.8c-0.14-1.09-0.47-2.05-0.98-2.88c-0.51-0.83-1.16-1.49-1.94-1.98
		c-0.78-0.49-1.65-0.86-2.61-1.1c-0.96-0.24-1.99-0.36-3.1-0.36c-2.17,0-4.01,0.58-5.51,1.74c-1.5,1.16-2.25,2.59-2.25,4.29
		c0,0.93,0.14,1.73,0.42,2.42c0.28,0.69,0.66,1.23,1.14,1.61c0.48,0.39,1.03,0.72,1.65,0.97c0.62,0.26,1.27,0.43,1.96,0.54
		c0.69,0.1,1.38,0.21,2.06,0.31c0.68,0.11,1.33,0.2,1.95,0.29c0.62,0.09,1.17,0.22,1.65,0.39c0.48,0.17,0.87,0.42,1.15,0.75
		c0.28,0.33,0.42,0.75,0.42,1.25c0,0.58-0.18,1.07-0.54,1.48c-0.36,0.41-0.81,0.7-1.35,0.87c-0.54,0.17-1,0.28-1.39,0.34
		c-0.38,0.06-0.72,0.1-1,0.1C284.3,128.5,282.81,127.33,282.4,125 M261.13,103.62h-4.32v28.17h4.32v-11.01
		c0-3.96,1.5-5.95,4.51-5.95c1.6,0.03,2.76,0.5,3.49,1.43c0.72,0.93,1.08,2.43,1.08,4.51v11.01h4.32v-11.04
		c0-3.27-0.64-5.69-1.91-7.25c-1.27-1.56-3.32-2.35-6.12-2.36c-1.2,0-2.27,0.26-3.21,0.77c-0.93,0.51-1.66,1.12-2.16,1.82V103.62z
		 M257.28,82.47c0,2.18-0.46,3.87-1.38,5.06c-0.91,1.19-2.16,1.79-3.73,1.79c-1.59,0-2.83-0.6-3.75-1.79
		c-0.91-1.19-1.37-2.88-1.37-5.06c0-2.17,0.46-3.84,1.37-5.03c0.91-1.19,2.16-1.78,3.75-1.78c1.56,0,2.8,0.6,3.73,1.79
		C256.82,78.65,257.28,80.32,257.28,82.47 M259.05,90.12c1.7-1.93,2.54-4.48,2.54-7.64c0-3.13-0.85-5.67-2.55-7.6
		c-1.7-1.93-3.99-2.9-6.87-2.9c-2.91,0-5.21,0.96-6.9,2.88c-1.68,1.92-2.53,4.46-2.53,7.62c0,3.16,0.84,5.71,2.53,7.64
		c1.69,1.93,3.99,2.9,6.9,2.9C255.06,93.01,257.36,92.05,259.05,90.12 M237.09,114.05c-1.74,1.94-2.61,4.47-2.61,7.6
		c0,3.17,0.87,5.72,2.61,7.65c1.74,1.93,4.06,2.89,6.96,2.89c1.28,0,2.45-0.19,3.51-0.58c1.06-0.39,1.94-0.91,2.66-1.56
		c0.71-0.65,1.29-1.37,1.73-2.15c0.44-0.78,0.76-1.6,0.94-2.47c-2.21-0.43-3.64-0.7-4.28-0.8c-0.33,1.25-0.88,2.2-1.65,2.87
		c-0.78,0.67-1.73,1-2.86,1c-1.67,0-2.95-0.62-3.86-1.86c-0.91-1.24-1.36-2.9-1.36-4.99c0-2.08,0.45-3.73,1.36-4.96
		c0.91-1.23,2.19-1.85,3.86-1.85c1.07,0,1.99,0.33,2.77,0.98c0.77,0.66,1.33,1.61,1.67,2.87c0.25-0.04,1.67-0.31,4.28-0.8
		c-0.17-0.71-0.4-1.39-0.7-2.03c-0.3-0.64-0.7-1.25-1.19-1.83c-0.5-0.58-1.06-1.09-1.7-1.5c-0.64-0.42-1.4-0.75-2.29-1
		c-0.89-0.25-1.84-0.38-2.87-0.38C241.15,111.15,238.83,112.11,237.09,114.05 M217.36,121.65c0-2.17,0.45-3.84,1.37-5.03
		c0.91-1.19,2.16-1.78,3.75-1.78c1.56,0,2.8,0.6,3.72,1.79c0.92,1.19,1.39,2.87,1.39,5.02c0,2.18-0.46,3.86-1.37,5.06
		c-0.92,1.19-2.16,1.79-3.74,1.79c-1.59,0-2.84-0.6-3.75-1.79C217.81,125.51,217.36,123.83,217.36,121.65 M215.57,114.03
		c-1.69,1.92-2.53,4.46-2.53,7.62c0,3.16,0.84,5.71,2.53,7.64c1.68,1.93,3.99,2.9,6.9,2.9c2.89,0,5.19-0.97,6.88-2.9
		c1.69-1.93,2.54-4.48,2.54-7.64c0-3.13-0.85-5.66-2.55-7.6c-1.7-1.94-3.99-2.9-6.87-2.9C219.56,111.15,217.26,112.11,215.57,114.03
		 M207.28,75.66c1.59,0,2.75,0.47,3.48,1.43c0.73,0.95,1.1,2.46,1.1,4.53v11h4.32v-11c0-3.31-0.62-5.74-1.87-7.3
		c-1.25-1.55-3.3-2.34-6.16-2.35c-1.19,0-2.29,0.27-3.29,0.8c-1.01,0.53-1.7,1.13-2.08,1.8l-0.43-2.19h-3.89v20.24h4.32v-11
		C202.76,77.65,204.27,75.66,207.28,75.66 M193,103.62h-4.47v28.17H193v-12.56h12.08v12.56h4.47v-28.17h-4.47v11.8H193V103.62z
		 M193,64.45h-4.47v28.18H193V64.45z M78.58,113.48L28.25,91.12l62.8-25.76l50.34,22.37L78.58,113.48z M80.72,154.63l0-5.51
		l62.82-25.76l0.01,5.5L80.72,154.63z M143.53,118.63l-62.81,25.76l0-6.05l62.79-25.75L143.53,118.63z M143.51,107.86l-62.78,25.75
		v-5.97l62.77-25.75L143.51,107.86z M143.5,97.16L80.73,122.9l0-5.57l62.75-25.74L143.5,97.16z M143.48,83.87L93.27,61.56
		l0.02-37.23l50.14,22.59L143.48,83.87z M88.91,24.21l0,5.51l-62.67,25.7l0-5.5L88.91,24.21z M26.23,60.15l62.67-25.7l0,6.05
		L26.23,66.2L26.23,60.15z M26.23,70.93l62.67-25.7l0,5.97l-62.67,25.7L26.23,70.93z M26.22,81.64l62.67-25.7l0,5.57l-62.67,25.7
		L26.22,81.64z M26.22,95.01l50.15,22.28l-0.02,37.23l-50.14-22.6L26.22,95.01z M78.49,160.28l69.44-28.48l-0.13-87.71L91.14,18.56
		L21.86,46.98l-0.04,87.77L78.49,160.28z M209.24,44.52c0-0.92-0.12-1.76-0.35-2.51c-0.23-0.75-0.54-1.39-0.91-1.93
		c-0.37-0.53-0.85-1-1.43-1.42c-0.58-0.42-1.15-0.75-1.72-1c-0.56-0.25-1.23-0.48-2-0.68c-0.77-0.2-1.45-0.35-2.03-0.44
		c-0.58-0.09-1.26-0.18-2.03-0.27c-4.17-0.46-6.25-1.81-6.25-4.05c0-0.75,0.17-1.42,0.51-2c0.34-0.58,0.79-1.04,1.35-1.37
		c0.56-0.33,1.17-0.58,1.84-0.74c0.66-0.16,1.35-0.24,2.07-0.24c0.73,0,1.42,0.1,2.08,0.29c0.66,0.2,1.27,0.49,1.84,0.88
		c0.57,0.39,1.04,0.92,1.41,1.6c0.37,0.67,0.6,1.45,0.67,2.34l4.32-0.7c-0.05-1.25-0.38-2.4-0.97-3.45c-0.6-1.05-1.37-1.92-2.34-2.6
		c-0.96-0.69-2.05-1.22-3.26-1.59c-1.21-0.38-2.46-0.57-3.75-0.57c-0.98,0-1.93,0.1-2.87,0.29c-0.94,0.2-1.85,0.51-2.73,0.94
		c-0.89,0.43-1.66,0.95-2.34,1.57c-0.67,0.62-1.21,1.39-1.61,2.32c-0.4,0.92-0.61,1.94-0.61,3.05c0,4.53,3.47,7.13,10.41,7.81
		c0.56,0.04,1.06,0.09,1.51,0.17c0.45,0.07,0.93,0.18,1.43,0.31c0.5,0.14,0.94,0.31,1.31,0.54c0.37,0.22,0.71,0.49,1.03,0.8
		c0.31,0.31,0.55,0.69,0.71,1.15c0.16,0.45,0.24,0.97,0.24,1.54c0,1.45-0.6,2.6-1.79,3.43c-1.19,0.83-2.68,1.25-4.45,1.25
		c-1.15,0-2.17-0.2-3.08-0.6c-0.9-0.4-1.61-0.92-2.12-1.56c-0.51-0.63-0.89-1.3-1.15-2c-0.26-0.7-0.39-1.4-0.39-2.1l-4.47,0.8
		c0.03,0.87,0.18,1.74,0.45,2.59c0.27,0.85,0.7,1.68,1.29,2.5c0.59,0.82,1.3,1.54,2.14,2.15c0.84,0.61,1.89,1.11,3.15,1.48
		c1.26,0.37,2.66,0.56,4.18,0.56c3.18,0,5.75-0.78,7.74-2.35C208.25,49.09,209.24,47.04,209.24,44.52 M218.84,35.59h4.2v-3.22h-4.2
		v-5.9h-4.32v5.9h-3.48v3.22h3.48v11.23c0,2.03,0.38,3.52,1.14,4.49c0.76,0.97,2.06,1.45,3.9,1.45h0.51l2.58-0.16v-3.48
		c-0.24,0-0.57,0.01-1,0.04c-0.43,0.03-0.74,0.04-0.94,0.04c-0.7,0-1.19-0.15-1.46-0.45c-0.27-0.3-0.41-0.85-0.41-1.65V35.59z
		 M230.89,71.97c-1.19,0-2.29,0.27-3.3,0.8c-1,0.53-1.7,1.13-2.08,1.8l-0.43-2.19h-3.89v20.24h4.32v-11c0-3.97,1.5-5.96,4.51-5.96
		c1.59,0,2.75,0.47,3.48,1.43c0.73,0.95,1.1,2.46,1.1,4.53v11h4.32v-11c0-3.31-0.62-5.74-1.87-7.3
		C235.8,72.77,233.75,71.98,230.89,71.97 M228.01,52.61h4.32V32.37h-4.32V52.61z M227.73,29.28h4.87v-4.85h-4.87V29.28z M246,28.13
		h2.44v-3.69h-2.97c-3.71,0-5.57,1.82-5.57,5.45v2.48h-3.48v3.22h3.48v17.02h4.32V35.59h3.81v-3.22h-3.81v-2.21
		C244.23,28.8,244.82,28.13,246,28.13 M258.27,35.59h4.2v-3.22h-4.2v-5.9h-4.32v5.9h-3.48v3.22h3.48v11.23
		c0,2.03,0.38,3.52,1.14,4.49c0.76,0.97,2.06,1.45,3.9,1.45h0.51l2.58-0.16v-3.48c-0.24,0-0.57,0.01-1,0.04
		c-0.43,0.03-0.74,0.04-0.94,0.04c-0.7,0-1.19-0.15-1.46-0.45c-0.27-0.3-0.41-0.85-0.41-1.65V35.59z M267.11,72.38h-4.53l7.56,20.24
		h4.28l7.52-20.24h-4.51l-5.16,14.96L267.11,72.38z M280.31,52.61h3.89V32.37h-4.32v11c0,2-0.37,3.49-1.11,4.47
		c-0.74,0.98-1.87,1.47-3.39,1.47c-1.59-0.03-2.75-0.51-3.47-1.44c-0.72-0.93-1.08-2.43-1.08-4.5v-11h-4.32V43.4
		c0,3.3,0.61,5.72,1.84,7.27c1.22,1.55,3.22,2.33,6,2.33c1.26,0,2.4-0.27,3.42-0.8c1.01-0.53,1.72-1.13,2.11-1.79L280.31,52.61z
		 M296.78,83.77v1.01c0,1.2-0.5,2.26-1.48,3.18c-0.99,0.93-2.32,1.39-3.99,1.39c-1.23,0-2.13-0.27-2.71-0.81
		c-0.58-0.54-0.87-1.2-0.87-1.98c0-0.28,0.06-0.57,0.19-0.86c0.12-0.29,0.33-0.59,0.62-0.9c0.29-0.31,0.73-0.55,1.33-0.75
		c0.6-0.19,1.32-0.29,2.15-0.29H296.78z M292.43,71.97c-1.46,0-2.78,0.23-3.96,0.69c-1.18,0.46-2.17,1.2-2.98,2.2
		c-0.81,1-1.28,2.23-1.43,3.67c0.49,0.08,1.22,0.21,2.18,0.4c0.96,0.19,1.66,0.32,2.1,0.4c0.04-1.2,0.41-2.11,1.12-2.73
		c0.71-0.62,1.7-0.94,2.96-0.94c0.72,0,1.34,0.08,1.87,0.23c0.54,0.16,0.95,0.35,1.26,0.6c0.31,0.24,0.56,0.53,0.75,0.88
		c0.19,0.35,0.32,0.67,0.38,0.98c0.06,0.31,0.09,0.64,0.09,0.99v1.21h-5.2c-2.54,0-4.55,0.59-6.03,1.76
		c-1.48,1.18-2.22,2.6-2.22,4.26c0,1.95,0.67,3.5,2,4.68c1.33,1.17,3.16,1.76,5.48,1.76c1.5-0.04,2.78-0.37,3.86-0.99
		c1.08-0.62,1.9-1.29,2.47-2.01c0.17,0.88,0.55,1.58,1.14,2.1c0.59,0.52,1.38,0.79,2.37,0.79c0.88,0,1.74-0.1,2.56-0.31v-3.54
		c-0.26,0.11-0.6,0.16-1.03,0.16c-0.4,0-0.69-0.16-0.85-0.47c-0.16-0.31-0.24-0.78-0.24-1.4v-7.04c0-2.76-0.73-4.84-2.19-6.23
		C297.45,72.67,295.29,71.97,292.43,71.97 M303.04,52.61h4.32v-11c0-3.31-0.62-5.74-1.87-7.3c-1.25-1.56-3.3-2.34-6.17-2.35
		c-1.19,0-2.29,0.27-3.29,0.8c-1.01,0.54-1.7,1.13-2.08,1.8l-0.43-2.19h-3.89v20.24h4.32v-11c0-3.97,1.5-5.96,4.51-5.96
		c1.59,0,2.75,0.48,3.48,1.43c0.73,0.95,1.1,2.46,1.1,4.53V52.61z M307.4,66.48v5.9h-3.48v3.22h3.48v11.23
		c0,2.03,0.38,3.52,1.14,4.49c0.76,0.97,2.06,1.45,3.9,1.45h0.51l2.58-0.16v-3.48c-0.24,0-0.57,0.01-1,0.04
		c-0.43,0.03-0.74,0.04-0.94,0.04c-0.7,0-1.19-0.15-1.47-0.45c-0.27-0.3-0.41-0.85-0.41-1.65V75.61h4.2v-3.22h-4.2v-5.9H307.4z
		 M325.74,42.46c0,2.19-0.44,3.88-1.32,5.07c-0.88,1.19-2.11,1.78-3.69,1.78c-1.62,0-2.9-0.6-3.85-1.79
		c-0.95-1.19-1.42-2.88-1.42-5.06c0-2.15,0.47-3.83,1.42-5.02c0.95-1.19,2.23-1.79,3.85-1.79c1.58,0,2.81,0.59,3.69,1.77
		C325.3,38.6,325.74,40.28,325.74,42.46 M327.47,58.52c1.72-1.58,2.58-3.83,2.58-6.75v-19.4h-3.97l-0.35,2.6
		c-0.39-0.77-1.12-1.46-2.19-2.08c-1.07-0.62-2.24-0.93-3.51-0.93c-2.62,0-4.76,0.98-6.42,2.93c-1.65,1.96-2.48,4.48-2.48,7.57
		c0,3.1,0.84,5.63,2.53,7.59c1.69,1.97,3.81,2.95,6.37,2.95c1.18,0,2.32-0.27,3.43-0.82s1.87-1.21,2.27-1.98v1.52
		c0,1.66-0.43,2.99-1.28,3.99c-0.86,0.99-2.1,1.49-3.73,1.49c-1.11,0-2.09-0.26-2.96-0.78c-0.86-0.52-1.4-1.19-1.62-2l-4.21,1.16
		c0.44,1.67,1.45,2.97,3.01,3.9c1.57,0.94,3.49,1.41,5.78,1.41C323.5,60.89,325.75,60.1,327.47,58.52 M343.92,82.47
		c0,2.18-0.46,3.87-1.38,5.06c-0.92,1.19-2.16,1.79-3.74,1.79c-1.59,0-2.83-0.6-3.74-1.79c-0.91-1.19-1.37-2.88-1.37-5.06
		c0-2.17,0.45-3.84,1.37-5.03c0.91-1.19,2.16-1.78,3.74-1.78c1.56,0,2.8,0.6,3.73,1.79C343.45,78.65,343.92,80.32,343.92,82.47
		 M345.69,90.12c1.7-1.93,2.54-4.48,2.54-7.64c0-3.13-0.85-5.67-2.55-7.6c-1.7-1.93-3.99-2.9-6.88-2.9c-2.91,0-5.21,0.96-6.9,2.88
		c-1.68,1.92-2.53,4.46-2.53,7.62c0,3.16,0.84,5.71,2.53,7.64c1.69,1.93,3.99,2.9,6.9,2.9C341.7,93.01,344,92.05,345.69,90.12
		 M351.55,128.5c-1.59-0.02-2.74-0.5-3.47-1.44c-0.72-0.94-1.08-2.44-1.08-4.5v-11h-4.32v11.04c0,3.3,0.61,5.72,1.83,7.27
		c1.23,1.55,3.23,2.33,6,2.33c1.26,0,2.4-0.27,3.42-0.8c1.02-0.53,1.72-1.13,2.11-1.79l0.43,2.21h3.89v-20.24h-4.32v11
		c0,2-0.37,3.49-1.1,4.47C354.21,128.01,353.08,128.5,351.55,128.5 M365.83,92.63h4.32v-11c0-3.31-0.62-5.74-1.87-7.3
		c-1.25-1.55-3.3-2.34-6.17-2.35c-1.19,0-2.28,0.27-3.29,0.8c-1.01,0.53-1.7,1.13-2.08,1.8l-0.43-2.19h-3.89v20.24h4.32v-11
		c0-3.97,1.5-5.96,4.51-5.96c1.59,0,2.75,0.47,3.48,1.43c0.73,0.95,1.09,2.46,1.09,4.53V92.63z M365.85,131.8h4.32v-28.17h-4.32
		V131.8z M375.61,131.8h4.32v-28.17h-4.32V131.8z M384.3,69.29h4.87v-4.85h-4.87V69.29z M388.89,72.38h-4.32v20.24h4.32V72.38z
		 M397.65,119.72h-9.16c0.07-1.33,0.51-2.48,1.34-3.44c0.83-0.96,1.92-1.45,3.29-1.45c1.45,0,2.55,0.43,3.3,1.29
		C397.17,116.99,397.59,118.19,397.65,119.72 M399.8,113.8c-1.64-1.77-3.87-2.66-6.68-2.66c-2.81,0-5.07,0.97-6.77,2.91
		c-1.7,1.94-2.55,4.48-2.55,7.62c0,3.11,0.89,5.65,2.67,7.59c1.78,1.95,4.06,2.92,6.85,2.92c1.31,0,2.52-0.19,3.63-0.56
		c1.1-0.37,2.01-0.87,2.74-1.5c0.72-0.63,1.32-1.29,1.79-2c0.47-0.71,0.83-1.45,1.08-2.24c-2.33-0.68-3.66-1.06-3.97-1.14
		c-0.48,1.3-1.19,2.25-2.12,2.85c-0.93,0.6-1.98,0.9-3.14,0.9c-1.43,0-2.62-0.54-3.57-1.63c-0.94-1.09-1.44-2.39-1.47-3.92h13.91
		c0.05-0.46,0.08-1.09,0.08-1.92C402.26,117.99,401.44,115.58,399.8,113.8 M408.05,92.63h4.32v-11c0-3.31-0.62-5.74-1.87-7.3
		c-1.25-1.55-3.3-2.34-6.16-2.35c-1.19,0-2.29,0.27-3.29,0.8c-1,0.53-1.7,1.13-2.08,1.8l-0.43-2.19h-3.89v20.24h4.32v-11
		c0-3.97,1.51-5.96,4.51-5.96c1.59,0,2.75,0.47,3.48,1.43c0.73,0.95,1.09,2.46,1.09,4.53V92.63z M420.05,131.8h4.32v-11.04
		c0-3.27-0.64-5.69-1.91-7.25c-1.27-1.56-3.32-2.35-6.13-2.36c-1.2,0-2.27,0.26-3.2,0.77c-0.93,0.51-1.66,1.12-2.17,1.82v-10.11
		h-4.32v28.17h4.32v-11.01c0-3.96,1.5-5.95,4.51-5.95c1.6,0.03,2.77,0.5,3.49,1.43c0.72,0.93,1.09,2.43,1.09,4.51V131.8z
		 M439.88,82.47c0,2.19-0.44,3.88-1.32,5.07c-0.88,1.19-2.11,1.78-3.68,1.78c-1.59,0-2.86-0.6-3.8-1.8
		c-0.95-1.2-1.42-2.88-1.42-5.05c0-2.15,0.47-3.83,1.42-5.02c0.94-1.19,2.21-1.79,3.8-1.79c1.58,0,2.8,0.59,3.68,1.77
		C439.44,78.61,439.88,80.29,439.88,82.47 M440.23,92.63h3.97V64.45h-4.32v10.38c-0.48-0.69-1.27-1.34-2.36-1.94
		c-1.09-0.61-2.25-0.91-3.49-0.91c-2.71,0-4.85,0.96-6.42,2.88c-1.57,1.92-2.35,4.46-2.35,7.62c0,3.11,0.82,5.64,2.47,7.6
		c1.65,1.96,3.75,2.94,6.3,2.94c1.29,0,2.48-0.32,3.56-0.95c1.08-0.64,1.84-1.3,2.29-2.01L440.23,92.63z M447.8,116.28
		c0.83-0.96,1.93-1.45,3.29-1.45c1.45,0,2.55,0.43,3.3,1.29c0.76,0.86,1.17,2.06,1.23,3.59h-9.16
		C446.53,118.39,446.98,117.25,447.8,116.28 M451.1,111.15c-2.81,0-5.07,0.97-6.77,2.91c-1.7,1.94-2.55,4.48-2.55,7.62
		c0,3.11,0.89,5.65,2.67,7.59c1.78,1.95,4.06,2.92,6.85,2.92c1.32,0,2.53-0.19,3.63-0.56c1.1-0.37,2.01-0.87,2.74-1.5
		c0.72-0.63,1.32-1.29,1.79-2c0.47-0.71,0.83-1.45,1.08-2.24c-2.33-0.68-3.66-1.06-3.97-1.14c-0.48,1.3-1.19,2.25-2.12,2.85
		c-0.93,0.6-1.98,0.9-3.14,0.9c-1.43,0-2.62-0.54-3.57-1.63c-0.94-1.09-1.43-2.39-1.47-3.92h13.91c0.05-0.46,0.08-1.09,0.08-1.92
		c0-3.05-0.82-5.46-2.46-7.23C456.14,112.03,453.91,111.15,451.1,111.15 M453.16,80.55c0.06-1.33,0.51-2.48,1.34-3.44
		c0.83-0.96,1.92-1.44,3.29-1.44c1.44,0,2.55,0.43,3.3,1.29c0.75,0.86,1.17,2.06,1.23,3.6H453.16z M454.42,87.69
		c-0.94-1.09-1.44-2.39-1.48-3.92h13.91c0.05-0.46,0.08-1.09,0.08-1.92c0-3.05-0.82-5.46-2.46-7.23c-1.64-1.77-3.87-2.66-6.68-2.66
		c-2.81,0-5.07,0.97-6.77,2.91c-1.7,1.94-2.55,4.48-2.55,7.62c0,3.11,0.89,5.64,2.67,7.59c1.78,1.95,4.06,2.92,6.85,2.92
		c1.32,0,2.53-0.18,3.63-0.56c1.1-0.37,2.01-0.87,2.74-1.5c0.72-0.63,1.32-1.3,1.79-2c0.47-0.71,0.83-1.45,1.08-2.24
		c-2.33-0.68-3.66-1.06-3.97-1.14c-0.48,1.3-1.19,2.25-2.12,2.85c-0.93,0.6-1.98,0.9-3.14,0.9
		C456.55,89.32,455.37,88.78,454.42,87.69 M482.64,75.78v-3.69c-0.56-0.08-1.21-0.11-1.93-0.11c-1.97,0-3.52,0.86-4.67,2.57
		l-0.43-2.16h-3.89v20.24h4.32V81.75c0-2.02,0.35-3.53,1.05-4.51c0.7-0.98,1.79-1.47,3.26-1.47H482.64z"/>
</g>
<g>
</g>
<g>
</g>
<g>
</g>
<g>
</g>
<g>
</g>
<g>
</g>
</svg>
